# xmcd
#
# Track frame offsets:
#	150
#	19985
#	35340
#	49330
#	61912
#	74135
#	86457
#	95455
#	107957
#	121810
#	135872
#	148787
#	163892
#	178920
#	192542
#	209440
#	218595
#	232425
#	243637
#
# Disc length: 3443 seconds
#
# Revision: 1
# Processed by: cddbd v1.4PL0 Copyright (c) Steve Scherf et al.
# Submitted via: EasyCDDAExtractor 5.1.0
#
DISCID=2a0d7113
DTITLE=Various Artist - HOT JAZZ BAND
DYEAR=1995
DGENRE=BLUES
TTITLE0=HOT JAZZ BAND - I GOT RHYTHM
TTITLE1=SOMEDAY SWEETHEART
TTITLE2=SOLITUDE
TTITLE3=HONEYSUCKLE ROSE
TTITLE4=YOU CAN DEPEND ON ME
TTITLE5=YOU'RE MY EVERYTHING
TTITLE6=CRAZY RHYTHM
TTITLE7=SWEET EMMALINE
TTITLE8=IT HAD TO BE YOU
TTITLE9=DOIN' THE NEW LOW DOWN
TTITLE10=DREAM A LITTLE DREAM OF ME
TTITLE11=IT DON'T MEAN A THING
TTITLE12=STORMY WEATHER
TTITLE13=NOBODY'S SWEETHEART
TTITLE14=I'VE FOUND A NEW BABY
TTITLE15=BEALE ST BLUES
TTITLE16=BYE BYE BLUES
TTITLE17=YOU MUST HAVE BEEN A BEAUTIFUL BABY
TTITLE18=DO YOU KNOW WHAT IT MEANS
EXTD=
EXTT0=
EXTT1=
EXTT2=
EXTT3=
EXTT4=
EXTT5=
EXTT6=
EXTT7=
EXTT8=
EXTT9=
EXTT10=
EXTT11=
EXTT12=
EXTT13=
EXTT14=
EXTT15=
EXTT16=
EXTT17=
EXTT18=
PLAYORDER=
